<svg xmlns="http://www.w3.org/2000/svg" viewBox="0 0 1200 253"><defs><style>      .cls-1 {        fill: #f5b4cd;      }      .cls-2 {        fill: #231f20;      }    </style></defs><g><g id="Capa_2"><g id="Capa_3"><g><path class="cls-1" d="M1075,50.7h39.8v18.7c6-7.6,11.9-13.2,18.1-16.5,6.2-3.3,13.6-4.9,22.2-4.9s21,3.7,27.8,10.9c6.6,7.2,10.1,18.5,10.1,33.8v73.3h-43.1v-63.5c0-7.2-1.2-12.4-3.9-15.5-2.7-3.1-6.2-4.5-10.9-4.5s-9.5,2.1-12.6,6.2c-3.3,4.1-4.7,11.3-4.7,21.8v55.4h-42.6V50.7h-.2ZM926.2,50.7h39.8v18.7c6-7.6,11.9-13.2,18.1-16.5,6.2-3.3,13.6-4.9,22.2-4.9s21,3.7,27.8,10.9c6.6,7.2,10.1,18.5,10.1,33.8v73.3h-43.1v-63.5c0-7.2-1.2-12.4-3.9-15.5-2.7-3.1-6.2-4.5-10.9-4.5s-9.5,2.1-12.6,6.2c-3.3,4.1-4.7,11.3-4.7,21.8v55.4h-42.6V50.7h-.2ZM894.5,154.3c-.6-3.1-1-7.4-1-12.8v-51.1c0-5.4-1-11.1-3.1-17.1-2.1-6-4.9-10.5-8.7-13.8-5.2-4.7-11.7-7.8-19.6-9.3-7.8-1.4-18.3-2.3-31.3-2.3s-15.7.6-22.5,1.9c-7,1.2-12.4,2.9-16.3,5.2-5.6,3.1-9.7,6.8-12.8,11.1-1.6,2.3-2.9,5.2-4.1,8.4-.4,1.2-.8,2.5-1.2,3.5,0,.4-.2.6-.2,1-.2.6-.2,1.2-.4,1.6-.2,1-.4,1.9-.6,2.9h.2c-.4,2.7-.6,4.5-.6,4.5h41.8c1.6-4.9,3.9-8.4,6.6-10.3,3.5-2.3,8.9-3.5,15.9-3.5s9.5,1,11.5,3.3c2.3,2.3,3.3,6,3.3,11.3-5.4,2.3-10.5,3.9-15.2,5.4-4.7,1.4-15.2,3.7-31.5,7-13.6,2.7-22.9,7-27.8,12.6-4.9,5.6-7.6,12.8-7.6,21.6s3.5,17.3,10.5,23.7c7,6.4,17.3,9.5,30.7,9.5s19-1.6,26.8-4.7c5.6-2.5,11.3-6.4,16.9-11.9.4,3.3,1,5.8,1.4,7.4.4,1.6,1.6,3.9,3.1,6.8h40.4c-2.3-4.9-3.7-8.9-4.5-11.9ZM851.3,118.3c0,5.6-.8,10.1-2.7,13.4-1.6,3.5-4.7,6.4-8.9,8.9-4.1,2.5-8.7,3.5-13.4,3.5s-8-1-10.5-3.3c-2.5-2.3-3.5-5.2-3.5-8.4s1.2-5.8,3.7-8.2c2.3-2.3,7.8-4.7,16.7-7,6.4-1.6,12.6-3.5,18.5-5.8v7ZM750.1,114.3c0-15.2-2.5-27.6-7.2-37.1-4.9-9.5-11.9-16.7-21.2-21.8-9.3-4.9-22-7.4-38.1-7.4s-35.4,5.6-46.8,16.7c-11.3,11.1-16.9,25.8-16.9,43.9s2.9,23.7,8.4,33.2c5.6,9.5,12.8,16.3,21.2,20.6,8.4,4.3,20.2,6.4,35.2,6.4s30.3-2.5,39.6-7.6c4.1-2.3,8-5.4,11.7-9.1.2-.2.4-.4.6-.6,11.7-12.6,12.6-19.4,12.6-19.4h-43.9c-2.7,3.5-5.2,6-7.6,7.2-3.9,2.3-7.8,3.3-12.2,3.3-6.8,0-12.2-2.5-16.3-7.4-2.9-3.5-4.9-8.9-5.6-15.9h86.5v-4.9h-.2ZM663.8,98.1c.6-6.8,2.5-12.2,4.9-15.7,4.1-5.6,9.7-8.4,16.5-8.4s10.7,1.9,14.4,5.6c3.7,3.7,6,9.9,6.8,18.3h-42.6v.2ZM615.6,54c-7.6-4.1-14.6-6.2-21-6.2s-11.3,1.4-15.5,4.5c-4.1,3.1-8.2,8.7-12.2,16.9v-19h-40.8v115.6h43.7v-38.5c0-18.5,2.3-31.1,6.8-37.9,3.1-4.7,7.6-7.2,13.2-7.2s6.4,1,10.9,2.7c2.7-11.1,7.4-21,14.2-29.7l.6-1.2ZM393.1,110.4c-3.7-5.6-9.3-9.7-16.5-12.8-7.2-3.1-18.1-5.4-32.8-7-9.7-1.2-16.1-2.5-19-3.9-2.9-1.4-4.3-3.5-4.3-6.4s1.2-4.7,3.5-6.4c2.3-1.9,6-2.7,10.9-2.7s9.1,1.2,12.6,3.5c2.5,1.9,4.3,4.5,5.4,8.2h1l42,.2s.2-1.2-1-4.1h0c-2.9-7.6-6.6-13.6-10.9-17.9-4.3-4.5-9.9-7.6-16.5-9.9-6.6-2.1-16.7-3.3-30.5-3.3s-23.5,1.2-31.3,3.9c-7.8,2.7-13.8,6.8-18.3,12.4-4.5,5.6-6.6,11.9-6.6,19.6s2.1,13.2,6.2,18.5c4.1,5.4,9.1,9.3,15,11.5,6,2.3,16.7,4.7,31.9,7.6,10.3,1.9,16.7,3.3,19,4.5,3.3,1.6,4.9,4.1,4.9,7.4s-1.2,5.2-3.9,7c-3.3,2.5-7.8,3.7-13.8,3.7s-9.7-1.2-13-3.5-5.8-6-7.6-11.1h-.2l-44.1-.2s-.2,1.4.2,4.1v.2c.2.8.4,1.9.8,3.1,2.9,9.5,8.2,17.1,16.3,22.7,8.9,6,23.9,9.1,45.1,9.1s26.8-1.9,35.4-5.6c8.7-3.7,15-8.7,19.2-15,4.1-6.4,6-12.8,6.2-19.4.2-6.6-1.6-12.6-5.4-18.1ZM482.1,137.6c-3.7,0-6.2-1.2-7.6-3.7-1-1.6-1.4-4.9-1.4-9.7l.2-41h24.1v-32.3h-24.1l.2-50.5-44.5,14.6v35.6h-16.3v32.3h16.3v40.8c0,13,1.2,22.2,3.7,28,2.5,5.8,6.4,10.1,11.5,13,5.2,2.9,13.4,4.3,24.3,4.3s18.5-1,28.8-3.1v-31.5c-5.6,1.4-12.2,3.1-15.2,3.1Z"></path><path class="cls-1" d="M121.8,14.2h-.4C57.5,14.2,5.6,65.9,5.2,129.8v.4c0,21.4,5.8,41.2,15.9,58.5L0,252.6l64.7-20.8c16.7,9.5,35.8,14.8,56.4,14.8h.4c63.9,0,115.8-51.7,116.2-115.6v-.4c-.2-64.3-51.9-116.2-116-116.4ZM236.3,130.8c-.2,63.2-51.7,114.3-114.8,114.3h-.4c-20.4,0-39.6-5.6-56-14.8l-.2-.2L2.1,250.5l20.6-61.8-.2-.2c-10.1-17.1-15.9-36.9-15.9-58.1v-.4c.2-63.2,51.5-114.3,114.8-114.3h.4c63.2.2,114.3,51.5,114.3,114.8.2,0,.2.2.2.4Z"></path><path class="cls-2" d="M6.6,130v.4h0c0,21.2,5.8,41,15.9,58.1h0l.2.2L2.1,250.5l62.8-20.4.2.2c16.5,9.3,35.6,14.8,56,14.8h.4c63.2,0,114.5-51.1,114.8-114.3h0v-.4h0c0-63.2-51.1-114.5-114.3-114.8h0v-.6.6h-.4c-63.5-.2-114.8,50.9-115,114.3h0Z"></path><g><path class="cls-1" d="M56.2,131.4c9.1,7.2,16.3,9.5,22.2,9.5s13.8-3.7,20.2-8.9c7-5.8,14.8-9.1,23.1-9.1s17.1,3.5,25.5,10.1c7,5.6,13.6,8.2,19.8,8.2s10.9-2.1,17.1-7.2c12.2-10.5,18.7-11.7,24.3-11.5h1c2.9,0,5.6.6,8.4,1.4-.4-4.9-1-9.9-2.1-14.8-2.3-.6-4.3-1-6.2-1h-1c-4.5.2-6.4-.4-18.7,9.5-7.4,6.2-15,9.3-22.9,9.3s-17.5-4.1-25.3-10.3c-7.4-5.8-14-8.2-20-8.2s-11.5,2.3-17.5,7c-7,5.6-15.2,10.9-26,10.9s-17.7-3.5-27.8-11.3c-6.4-4.9-12.4-6.6-17.7-6.8-2.3,0-4.3.2-6.4.8-1,4.7-1.9,9.7-2.1,14.8,2.7-.6,5.6-1.2,8.7-1.2,7.4.2,15.5,2.9,23.3,8.9Z"></path><path class="cls-1" d="M33,145.2c7.4,0,15.7,2.5,23.3,8.7,9.1,7.2,16.3,9.5,22.2,9.5s13.8-3.7,20.2-8.9c7-5.8,14.8-9.1,23.1-9.1s17.1,3.5,25.5,10.1c7,5.6,13.6,8.2,19.8,8.2s10.9-2.1,17.1-7.2c12.2-10.5,18.7-11.7,24.3-11.5h1c2.5,0,4.9.4,7.2,1,.6-4.1,1-8.2,1.2-12.6-2.9-1.2-6-1.9-8.4-1.9h-1c-4.5.2-6.4-.4-18.7,9.5-7.4,6.2-15,9.3-22.9,9.3s-17.5-4.1-25.3-10.3c-7.4-5.8-14-8.2-20-8.2s-11.5,2.3-17.5,7c-7,5.6-15.2,10.9-26,10.9s-17.7-3.5-27.8-11.3c-6.4-4.9-12.4-6.6-17.7-6.6s-6,.6-8.7,1.6c.2,4.3.6,8.4,1.2,12.8,2.7-.6,5.2-1,7.8-1Z"></path><path class="cls-1" d="M209.7,154.1h-1c-4.5.2-6.4-.4-18.7,9.5-7.4,6.2-15,9.3-22.9,9.3s-17.5-4.1-25.3-10.3c-7.4-5.8-14-8.2-20-8.2s-11.5,2.3-17.5,7c-7,5.6-15.2,10.9-26,10.9s-17.7-3.5-27.8-11.3c-6.4-4.9-12.4-6.6-17.7-6.6s-3.9.2-5.8.6c3.1,12.2,8.7,23.5,15.9,33.2l-13,35.8,37.9-12.4c15.2,10.1,33.6,15.9,53.4,15.9,45.1,0,83.2-30.9,93.9-72.7-1.9-.4-3.7-.6-5.4-.6Z"></path><path class="cls-1" d="M33,99.5c7.4,0,15.7,2.5,23.3,8.7,9.1,7.2,16.3,9.5,22.2,9.5s13.8-3.7,20.2-8.9c7-5.8,14.8-9.1,23.1-9.1s17.1,3.5,25.5,10.1c7,5.6,13.6,8.2,19.8,8.2s10.9-2.1,17.1-7.2c12.2-10.5,18.7-11.7,24.3-11.5h1c1.2,0,2.5.2,3.5.4-13-38.5-49.2-66.3-92.1-66.3S41.8,61.2,28.8,99.7c1.6-.2,2.9-.2,4.1-.2Z"></path></g><g><path class="cls-1" d="M321.7,206.3l-18.6,44h-14.6l-18.6-44h16l10.5,25.7,10.7-25.7h14.6Z"></path><path class="cls-1" d="M323.1,206.3h14.8v44h-14.8v-44Z"></path><path class="cls-1" d="M345.1,206.3h21.7c14.7,0,24.8,8.4,24.8,22s-10.1,22-24.8,22h-21.7v-44ZM366.1,238.7c6.2,0,10.5-3.7,10.5-10.4s-4.3-10.4-10.5-10.4h-6.2v20.9h6.2Z"></path><path class="cls-1" d="M433.6,239.1v11.2h-36.6v-44h35.8v11.2h-21.2v5.2h18.6v10.7h-18.6v5.8h22Z"></path><path class="cls-1" d="M437.5,228.3c0-13.3,10.5-23,24.8-23s24.8,9.7,24.8,23-10.5,23-24.8,23-24.8-9.7-24.8-23ZM472.2,228.3c0-6.9-4.4-11-9.9-11s-9.9,4.1-9.9,11,4.4,11,9.9,11,9.9-4.1,9.9-11Z"></path><path class="cls-1" d="M543.3,233.6h-10.4v10.1h-11.3v-10.1h-10.4v-10.7h10.4v-10.1h11.3v10.1h10.4v10.7Z"></path><path class="cls-1" d="M599.2,242.6h-16.7l-3,7.7h-15.1l19.2-44h14.6l19.2,44h-15.3l-3-7.7ZM595.1,231.9l-4.3-11.1-4.3,11.1h8.5Z"></path><path class="cls-1" d="M618,205.9c0-4.1,3.3-7.2,8.5-7.2s8.5,2.9,8.5,7-3.3,7.5-8.5,7.5-8.5-3.1-8.5-7.2ZM619.4,215.9h14.2v34.4h-14.2v-34.4Z"></path><path class="cls-1" d="M691.1,233.6h-10.4v10.1h-11.3v-10.1h-10.4v-10.7h10.4v-10.1h11.3v10.1h10.4v10.7Z"></path><path class="cls-1" d="M715.2,228.3c0-13.5,10.4-23,24.5-23s15.4,3.1,19.7,8.8l-9.4,8.4c-2.6-3.3-5.7-5.2-9.6-5.2-6.2,0-10.3,4.3-10.3,11s4.1,11,10.3,11,7-1.9,9.6-5.2l9.4,8.4c-4.3,5.7-11.1,8.8-19.7,8.8-14.1,0-24.5-9.5-24.5-23Z"></path><path class="cls-1" d="M761,228.3c0-13.3,10.5-23,24.8-23s24.8,9.7,24.8,23-10.5,23-24.8,23-24.8-9.7-24.8-23ZM795.7,228.3c0-6.9-4.4-11-9.9-11s-9.9,4.1-9.9,11,4.4,11,9.9,11,9.9-4.1,9.9-11Z"></path><path class="cls-1" d="M855.4,250.3v-20c-.1,0-9.7,16.1-9.7,16.1h-6.5l-9.6-15.4v19.4h-13.5v-44h12.2l14.3,23.4,14-23.4h12.2v44c.1,0-13.4,0-13.4,0Z"></path><path class="cls-1" d="M915.3,250.3v-20c-.1,0-9.7,16.1-9.7,16.1h-6.5l-9.6-15.4v19.4h-13.5v-44h12.2l14.3,23.4,14-23.4h12.2v44c.1,0-13.4,0-13.4,0Z"></path><path class="cls-1" d="M935.6,230.5v-24.2h14.8v23.8c0,6.7,2.6,9.2,6.7,9.2s6.7-2.5,6.7-9.2v-23.8h14.6v24.2c0,13.2-7.9,20.8-21.4,20.8s-21.4-7.6-21.4-20.8Z"></path><path class="cls-1" d="M1028.6,206.3v44h-12.2l-16.7-20v20h-14.5v-44h12.2l16.7,20v-20h14.5Z"></path><path class="cls-1" d="M1035.7,206.3h14.8v44h-14.8v-44Z"></path><path class="cls-1" d="M1067.3,217.8h-12.9v-11.5h40.6v11.5h-12.9v32.5h-14.8v-32.5Z"></path><path class="cls-1" d="M1098.8,206.3h14.8v44h-14.8v-44Z"></path><path class="cls-1" d="M1157.4,239.1v11.2h-36.6v-44h35.8v11.2h-21.2v5.2h18.6v10.7h-18.6v5.8h22Z"></path><path class="cls-1" d="M1160.3,246.7l4.8-10.8c4.1,2.5,9.7,4,14.5,4s5.7-.9,5.7-2.4c0-5.5-24.3-1.1-24.3-17.5s6.9-14.8,20.5-14.8,12,1.3,16.6,3.8l-4.5,10.7c-4.3-2.2-8.4-3.3-12.3-3.3s-5.7,1.3-5.7,2.8c0,5.3,24.3.9,24.3,17.1s-6.8,14.8-20.5,14.8-14.8-1.8-19.2-4.5Z"></path></g></g></g></g></g></svg>